<!--?xml version="1.0" standalone="no"?-->

<svg version="1.0" xmlns="http://www.w3.org/2000/svg" width="300.000000pt" height="300.000000pt" viewBox="0 0 300.000000 300.000000" preserveAspectRatio="xMidYMid meet">
<g transform="translate(0.000000,300.000000) scale(0.100000,-0.100000)" fill="#030303" stroke="none">
<path class="node" id="node1" d="M1113 2570 c-76 -37 -144 -111 -172 -186 -20 -53 -21 -75 -21 -563
l0 -508 -26 -12 c-14 -6 -30 -9 -35 -6 -5 4 -9 37 -9 76 l0 69 -86 0 -87 0 7
63 c4 34 9 81 12 105 l6 42 -106 0 c-58 0 -106 -3 -106 -7 1 -5 7 -50 14 -101
15 -105 19 -98 -63 -105 -37 -3 -59 -10 -68 -23 -19 -26 -17 -173 3 -199 15
-21 10 -20 292 -25 9 0 12 -57 12 -250 l0 -250 35 0 35 0 0 -51 c0 -67 22
-111 72 -146 41 -28 42 -28 216 -31 96 -1 178 -5 183 -8 5 -3 9 -43 9 -90 l0
-84 405 0 405 0 0 90 0 90 43 1 c23 0 89 0 147 -1 58 -1 128 4 155 10 76 17
135 83 135 149 0 26 4 30 33 33 l32 3 3 268 c2 203 5 267 15 267 6 1 72 2 146
4 162 3 161 2 161 121 0 126 14 119 -259 123 -217 3 -231 2 -231 -15 -1 -10
-1 -64 -1 -121 l0 -102 -29 -15 c-16 -8 -31 -15 -35 -15 -3 0 -5 256 -5 568 0
490 -2 576 -16 622 -31 105 -101 181 -200 219 -54 20 -71 21 -507 21 l-452 -1
-62 -29z m1247 -1595 l0 -25 -725 0 -725 0 0 25 0 25 725 0 725 0 0 -25z"></path>
<path class="node" id="node2" d="M601 1902 c-6 -12 -11 -57 -11 -101 0 -79 -1 -81 -24 -81 -52 0 -86
-12 -86 -31 0 -18 9 -19 120 -19 101 0 120 2 120 15 0 19 -40 35 -86 35 l-34
0 0 64 c0 34 5 77 11 95 13 37 6 52 -10 23z"></path>
</g>
<g transform="translate(0.000000,300.000000) scale(0.100000,-0.100000)" fill="#A1A1A1" stroke="none">

<path class="node" id="node4" d="M910 975 l0 -25 725 0 725 0 0 25 0 25 -725 0 -725 0 0 -25z"></path>
</g>
</svg>